<svg xmlns="http://www.w3.org/2000/svg" version="1.1" xmlns:xlink="http://www.w3.org/1999/xlink" xmlns:svgjs="http://svgjs.com/svgjs" width="1440" height="560" preserveAspectRatio="none" viewBox="0 0 1440 560"><g mask="url(&quot;#SvgjsMask1000&quot;)" fill="none"><rect width="1440" height="560" x="0" y="0" fill="#1e3266"></rect><path d="M1464 560L0 560 L0 342.9Q21.75 292.65, 72 314.41Q100.67 271.08, 144 299.75Q202.36 286.11, 216 344.47Q239.2 295.67, 288 318.87Q318.59 277.46, 360 308.05Q450.88 278.94, 480 369.82Q491.62 309.44, 552 321.06Q591.75 240.81, 672 280.57Q742.99 231.56, 792 302.55Q863.65 254.2, 912 325.85Q980.72 274.57, 1032 343.29Q1081.14 320.44, 1104 369.58Q1158.9 304.48, 1224 359.38Q1248.76 264.13, 1344 288.89Q1409.26 234.15, 1464 299.41z" fill="#182f5d"></path><path d="M1512 560L0 560 L0 435.2Q34.53 397.73, 72 432.26Q78.64 366.9, 144 373.55Q169.69 327.25, 216 352.94Q312.38 329.31, 336 425.69Q344.3 361.99, 408 370.28Q476.64 318.92, 528 387.57Q590 377.57, 600 439.58Q640.75 360.32, 720 401.07Q767.99 377.06, 792 425.05Q808.28 369.33, 864 385.61Q906.67 356.28, 936 398.96Q985.37 376.33, 1008 425.7Q1047.67 345.38, 1128 385.05Q1177.63 314.68, 1248 364.31Q1278.4 322.71, 1320 353.11Q1380.97 342.08, 1392 403.04Q1444.49 335.53, 1512 388.02z" fill="#25467d"></path><path d="M1536 560L0 560 L0 442.88Q64.99 387.87, 120 452.86Q193.74 406.6, 240 480.34Q309.58 429.92, 360 499.51Q386 405.51, 480 431.52Q555.58 387.1, 600 462.67Q651.02 393.7, 720 444.72Q786.66 439.38, 792 506.05Q857.04 451.09, 912 516.12Q926.9 459.02, 984 473.93Q1019.63 389.56, 1104 425.18Q1182.9 384.09, 1224 462.99Q1293.06 412.05, 1344 481.11Q1388.51 453.62, 1416 498.12Q1442.78 404.89, 1536 431.67z" fill="#356cb1"></path><path d="M1488 560L0 560 L0 534.81Q51.54 514.35, 72 565.89Q96.6 470.49, 192 495.08Q272.17 455.25, 312 535.42Q360.88 464.29, 432 513.17Q481.33 442.5, 552 491.82Q631.19 451.01, 672 530.2Q722.44 508.64, 744 559.08Q783.16 478.25, 864 517.41Q931.67 465.08, 984 532.74Q1040.58 517.32, 1056 573.9Q1103.18 501.08, 1176 548.25Q1195.89 496.14, 1248 516.03Q1318.24 466.26, 1368 536.5Q1409.27 457.77, 1488 499.04z" fill="white"></path></g><defs><mask id="SvgjsMask1000"><rect width="1440" height="560" fill="#ffffff"></rect></mask></defs></svg>